<svg width="695" height="184" viewBox="0 0 695 184" fill="none" xmlns="http://www.w3.org/2000/svg">
<g clip-path="url(#clip0_0_3)">
<rect width="695" height="184" fill="white"/>
<path d="M19 33H119L149 161H49L19 33Z" fill="#ED1A2B"/>
<mask id="path-2-outside-1_0_3" maskUnits="userSpaceOnUse" x="35" y="32" width="116" height="129" fill="black">
<rect fill="white" x="35" y="32" width="116" height="129"/>
<path d="M42.5341 155L61.8523 38.6364H142.989L139.125 61.4773H86.1136L82.25 85.3409H131.114L127.25 108.239H78.3864L74.5227 132.159H127.534L123.67 155H42.5341Z"/>
</mask>
<path d="M42.5341 155L61.8523 38.6364H142.989L139.125 61.4773H86.1136L82.25 85.3409H131.114L127.25 108.239H78.3864L74.5227 132.159H127.534L123.67 155H42.5341Z" fill="#818286"/>
<path d="M42.5341 155L36.6151 154.017L35.4559 161H42.5341V155ZM61.8523 38.6364V32.6364H56.7662L55.9333 37.6537L61.8523 38.6364ZM142.989 38.6364L148.905 39.6371L150.089 32.6364H142.989V38.6364ZM139.125 61.4773V67.4773H144.195L145.041 62.478L139.125 61.4773ZM86.1136 61.4773V55.4773H81.0069L80.1908 60.5183L86.1136 61.4773ZM82.25 85.3409L76.3271 84.382L75.2004 91.3409H82.25V85.3409ZM131.114 85.3409L137.03 86.3392L138.211 79.3409H131.114V85.3409ZM127.25 108.239V114.239H132.322L133.166 109.237L127.25 108.239ZM78.3864 108.239V102.239H73.2777L72.4631 107.282L78.3864 108.239ZM74.5227 132.159L68.5995 131.202L67.4758 138.159H74.5227V132.159ZM127.534 132.159L133.45 133.16L134.634 126.159H127.534V132.159ZM123.67 155V161H128.741L129.586 156.001L123.67 155ZM42.5341 155L48.4531 155.983L67.7713 39.619L61.8523 38.6364L55.9333 37.6537L36.6151 154.017L42.5341 155ZM61.8523 38.6364V44.6364H142.989V38.6364V32.6364H61.8523V38.6364ZM142.989 38.6364L137.073 37.6357L133.209 60.4766L139.125 61.4773L145.041 62.478L148.905 39.6371L142.989 38.6364ZM139.125 61.4773V55.4773H86.1136V61.4773V67.4773H139.125V61.4773ZM86.1136 61.4773L80.1908 60.5183L76.3271 84.382L82.25 85.3409L88.1729 86.2999L92.0365 62.4362L86.1136 61.4773ZM82.25 85.3409V91.3409H131.114V85.3409V79.3409H82.25V85.3409ZM131.114 85.3409L125.197 84.3426L121.334 107.24L127.25 108.239L133.166 109.237L137.03 86.3392L131.114 85.3409ZM127.25 108.239V102.239H78.3864V108.239V114.239H127.25V108.239ZM78.3864 108.239L72.4631 107.282L68.5995 131.202L74.5227 132.159L80.446 133.116L84.3096 109.195L78.3864 108.239ZM74.5227 132.159V138.159H127.534V132.159V126.159H74.5227V132.159ZM127.534 132.159L121.618 131.158L117.755 153.999L123.67 155L129.586 156.001L133.45 133.16L127.534 132.159ZM123.67 155V149H42.5341V155V161H123.67V155Z" fill="white" mask="url(#path-2-outside-1_0_3)"/>
<path d="M154.104 97L162.918 43.9091H177.331L170.487 85.3864H191.952L189.982 97H154.104ZM195.808 97L204.622 43.9091H242.884L240.914 55.5227H217.065L215.613 64.6477H237.492L235.522 76.2614H213.643L212.191 85.3864H235.937L233.967 97H195.808ZM296.228 63.8182H281.815C281.919 62.5911 281.849 61.4851 281.607 60.5C281.365 59.5149 280.951 58.6681 280.363 57.9595C279.776 57.2337 279.006 56.6806 278.056 56.3004C277.105 55.9202 275.973 55.7301 274.66 55.7301C272.137 55.7301 269.881 56.3609 267.894 57.6225C265.907 58.8668 264.256 60.6555 262.943 62.9886C261.629 65.3045 260.696 68.0696 260.143 71.2841C259.659 74.3949 259.642 76.9786 260.091 79.0352C260.558 81.0917 261.465 82.6299 262.813 83.6495C264.178 84.6692 265.95 85.179 268.127 85.179C269.579 85.179 270.91 85.0062 272.119 84.6605C273.347 84.3149 274.435 83.8223 275.386 83.1829C276.354 82.5262 277.175 81.7485 277.849 80.8498C278.54 79.9338 279.067 78.9228 279.43 77.8168H293.947C293.394 80.0634 292.409 82.362 290.992 84.7124C289.575 87.0455 287.743 89.1971 285.496 91.1673C283.249 93.1201 280.605 94.7015 277.563 95.9112C274.522 97.121 271.1 97.7259 267.298 97.7259C262.32 97.7259 258.026 96.6371 254.414 94.4595C250.819 92.282 248.21 89.102 246.585 84.9197C244.978 80.7375 244.658 75.6392 245.626 69.625C246.594 63.8182 248.503 58.9532 251.355 55.0302C254.206 51.1071 257.672 48.1519 261.75 46.1644C265.829 44.177 270.167 43.1832 274.764 43.1832C278.237 43.1832 281.348 43.6412 284.096 44.5572C286.861 45.4731 289.186 46.8125 291.069 48.5753C292.97 50.3208 294.37 52.4724 295.269 55.0302C296.168 57.5879 296.487 60.5173 296.228 63.8182ZM302.715 55.5227L304.686 43.9091H350.829L348.859 55.5227H332.89L326.046 97H311.84L318.684 55.5227H302.715ZM347.44 97L356.254 43.9091H379.17C383.11 43.9091 386.437 44.6263 389.15 46.0607C391.864 47.4951 393.816 49.5604 395.009 52.2564C396.201 54.9524 396.487 58.1842 395.864 61.9517C395.242 65.7538 393.868 68.9596 391.743 71.5692C389.634 74.1616 386.947 76.1317 383.68 77.4798C380.431 78.8105 376.785 79.4759 372.741 79.4759H359.053L360.92 68.277H371.704C373.397 68.277 374.884 68.0696 376.163 67.6548C377.442 67.2228 378.478 66.5488 379.273 65.6328C380.068 64.6996 380.587 63.4725 380.829 61.9517C381.071 60.4309 380.95 59.1952 380.466 58.2447C379.982 57.2769 379.178 56.5683 378.055 56.119C376.932 55.6523 375.54 55.419 373.881 55.419H368.8L361.853 97H347.44ZM382.592 72.6321L391.82 97H376.163L367.245 72.6321H382.592ZM452.597 71.3878C451.63 77.16 449.711 81.9991 446.843 85.9048C443.974 89.8106 440.491 92.7572 436.395 94.7447C432.3 96.7321 427.919 97.7259 423.252 97.7259C418.275 97.7259 413.954 96.6457 410.291 94.4854C406.627 92.3252 403.957 89.1625 402.28 84.9975C400.604 80.8325 400.267 75.7429 401.269 69.7287C402.203 63.9564 404.104 59.1001 406.972 55.1598C409.841 51.2195 413.341 48.2383 417.471 46.2163C421.602 44.1942 426.017 43.1832 430.718 43.1832C435.661 43.1832 439.956 44.272 443.602 46.4496C447.266 48.6271 449.927 51.8157 451.586 56.0153C453.263 60.2148 453.6 65.339 452.597 71.3878ZM438.08 69.7287C438.564 66.687 438.599 64.1293 438.184 62.0554C437.769 59.9643 436.897 58.3916 435.566 57.3374C434.235 56.2659 432.446 55.7301 430.2 55.7301C427.642 55.7301 425.378 56.3523 423.408 57.5966C421.438 58.8409 419.805 60.6296 418.508 62.9627C417.212 65.2958 416.305 68.1042 415.786 71.3878C415.233 74.464 415.182 77.0218 415.631 79.0611C416.097 81.1004 417.013 82.6299 418.379 83.6495C419.761 84.6692 421.559 85.179 423.771 85.179C426.294 85.179 428.523 84.5741 430.459 83.3643C432.412 82.1546 434.028 80.4004 435.307 78.1019C436.603 75.8034 437.527 73.0123 438.08 69.7287ZM463.829 43.9091H481.768L489.13 73.9801H489.752L507.069 43.9091H525.008L516.194 97H502.092L507.172 66.3068H506.758L489.959 96.5852H481.457L474.717 66.0994H474.302L469.117 97H455.015L463.829 43.9091ZM536.816 97H521.262L547.6 43.9091H567.302L576.012 97H560.458L555.273 58.5298H554.858L536.816 97ZM537.438 76.054H566.679L564.813 86.8381H535.571L537.438 76.054ZM613.691 60.5C613.847 58.7891 613.432 57.4497 612.447 56.4819C611.462 55.4968 609.803 55.0043 607.47 55.0043C605.983 55.0043 604.739 55.1771 603.737 55.5227C602.752 55.8684 601.983 56.3436 601.43 56.9485C600.894 57.5534 600.557 58.2533 600.419 59.0483C600.263 59.6705 600.272 60.2408 600.445 60.7592C600.635 61.2604 600.989 61.7184 601.507 62.1332C602.043 62.5479 602.743 62.9195 603.607 63.2479C604.489 63.5762 605.534 63.87 606.744 64.1293L610.892 65.0625C613.726 65.6847 616.102 66.5056 618.021 67.5252C619.956 68.5276 621.477 69.7201 622.583 71.1026C623.689 72.4852 624.415 74.032 624.761 75.7429C625.123 77.4538 625.132 79.3203 624.786 81.3423C624.199 84.8333 622.842 87.7886 620.717 90.2081C618.591 92.6276 615.817 94.4682 612.395 95.7298C608.973 96.9914 605.016 97.6222 600.522 97.6222C595.925 97.6222 592.019 96.9395 588.805 95.5742C585.608 94.1916 583.292 92.0832 581.858 89.2489C580.44 86.3974 580.095 82.7595 580.821 78.3352H594.508C594.301 79.9598 594.474 81.325 595.027 82.4311C595.58 83.5372 596.47 84.3754 597.697 84.9457C598.924 85.516 600.453 85.8011 602.285 85.8011C603.84 85.8011 605.171 85.611 606.277 85.2308C607.383 84.8506 608.256 84.3235 608.896 83.6495C609.535 82.9755 609.924 82.2064 610.062 81.3423C610.2 80.5473 610.062 79.8388 609.647 79.2166C609.233 78.5945 608.481 78.0328 607.392 77.5316C606.303 77.0304 604.808 76.5724 602.907 76.1577L597.826 75.017C593.316 73.9801 589.911 72.2692 587.612 69.8842C585.314 67.4993 584.502 64.233 585.176 60.0852C585.729 56.6979 587.12 53.7427 589.349 51.2195C591.596 48.679 594.448 46.7088 597.904 45.3089C601.378 43.8918 605.223 43.1832 609.44 43.1832C613.726 43.1832 617.312 43.9004 620.198 45.3349C623.101 46.7693 625.184 48.7827 626.446 51.375C627.724 53.9673 628.07 57.009 627.483 60.5H613.691ZM627.677 97L636.491 43.9091H650.904L647.482 64.6477H666.562L669.984 43.9091H684.397L675.583 97H661.17L664.592 76.2614H645.512L642.09 97H627.677Z" fill="#818286"/>
<path d="M177.352 130.625C177.443 129.341 177.102 128.347 176.33 127.642C175.568 126.938 174.364 126.585 172.716 126.585C171.625 126.585 170.693 126.727 169.92 127.011C169.148 127.284 168.54 127.67 168.097 128.17C167.653 128.659 167.375 129.227 167.261 129.875C167.159 130.386 167.188 130.841 167.347 131.239C167.506 131.636 167.784 131.989 168.182 132.295C168.591 132.602 169.097 132.869 169.699 133.097C170.313 133.324 171 133.523 171.761 133.693L174.625 134.375C176.284 134.75 177.722 135.25 178.938 135.875C180.165 136.489 181.159 137.233 181.92 138.108C182.682 138.972 183.205 139.966 183.489 141.091C183.773 142.216 183.795 143.477 183.557 144.875C183.193 147.08 182.324 148.972 180.949 150.551C179.585 152.131 177.801 153.341 175.597 154.182C173.403 155.023 170.852 155.443 167.943 155.443C165.034 155.443 162.563 155.006 160.528 154.131C158.506 153.244 157.04 151.909 156.131 150.125C155.222 148.341 154.977 146.091 155.398 143.375H163.46C163.335 144.5 163.477 145.438 163.886 146.188C164.307 146.938 164.955 147.506 165.83 147.892C166.705 148.278 167.761 148.472 169 148.472C170.136 148.472 171.131 148.318 171.983 148.011C172.847 147.705 173.534 147.278 174.045 146.733C174.568 146.187 174.886 145.562 175 144.858C175.114 144.21 175.006 143.648 174.676 143.17C174.358 142.693 173.813 142.278 173.04 141.926C172.278 141.574 171.278 141.256 170.04 140.972L166.545 140.119C163.659 139.415 161.472 138.29 159.983 136.744C158.506 135.199 157.983 133.102 158.415 130.455C158.778 128.284 159.676 126.386 161.108 124.761C162.551 123.136 164.375 121.875 166.58 120.977C168.795 120.068 171.233 119.614 173.892 119.614C176.597 119.614 178.869 120.074 180.71 120.994C182.563 121.903 183.898 123.187 184.716 124.847C185.545 126.494 185.784 128.42 185.432 130.625H177.352ZM185.188 155L190.983 120.091H215.324L214.165 126.943H198.262L197.103 134.102H211.762L210.603 140.972H195.943L194.784 148.148H210.688L209.529 155H185.188ZM213.853 155L219.648 120.091H234.069C236.682 120.091 238.864 120.562 240.614 121.506C242.364 122.437 243.608 123.778 244.347 125.528C245.086 127.267 245.256 129.33 244.858 131.716C244.472 134.125 243.608 136.176 242.268 137.869C240.938 139.551 239.222 140.835 237.12 141.722C235.029 142.608 232.654 143.051 229.995 143.051H220.875L222 136.403H229.552C230.813 136.403 231.904 136.239 232.824 135.909C233.745 135.568 234.478 135.057 235.023 134.375C235.58 133.682 235.949 132.795 236.131 131.716C236.302 130.636 236.222 129.744 235.893 129.04C235.574 128.324 235.012 127.79 234.205 127.438C233.41 127.074 232.387 126.892 231.137 126.892H226.978L222.29 155H213.853ZM236.148 139.045L242.199 155H232.995L227.131 139.045H236.148ZM257.739 120.091L261.302 145.659H261.592L273.643 120.091H283.086L265.512 155H254.279L248.296 120.091H257.739ZM294.322 120.091L288.526 155H280.089L285.884 120.091H294.322ZM328.216 132.739H319.795C319.841 131.852 319.755 131.062 319.539 130.369C319.324 129.665 318.983 129.062 318.517 128.562C318.051 128.051 317.471 127.665 316.778 127.403C316.085 127.142 315.278 127.011 314.358 127.011C312.596 127.011 311 127.449 309.568 128.324C308.136 129.199 306.937 130.46 305.971 132.108C305.005 133.756 304.329 135.733 303.943 138.04C303.591 140.267 303.596 142.125 303.96 143.614C304.335 145.102 305.028 146.222 306.039 146.972C307.051 147.71 308.335 148.08 309.892 148.08C310.903 148.08 311.841 147.96 312.704 147.722C313.579 147.472 314.369 147.114 315.074 146.648C315.778 146.182 316.386 145.619 316.897 144.96C317.42 144.29 317.824 143.545 318.108 142.727H326.596C326.176 144.261 325.483 145.79 324.517 147.312C323.562 148.824 322.358 150.193 320.903 151.42C319.449 152.648 317.761 153.631 315.841 154.369C313.92 155.108 311.784 155.477 309.432 155.477C306.216 155.477 303.443 154.756 301.113 153.312C298.795 151.869 297.119 149.778 296.085 147.04C295.062 144.29 294.869 140.96 295.505 137.051C296.13 133.267 297.363 130.08 299.204 127.489C301.057 124.898 303.307 122.938 305.954 121.608C308.613 120.278 311.449 119.614 314.46 119.614C316.642 119.614 318.602 119.909 320.341 120.5C322.091 121.08 323.574 121.932 324.789 123.057C326.005 124.17 326.909 125.54 327.5 127.165C328.102 128.79 328.341 130.648 328.216 132.739ZM328.419 155L334.214 120.091H358.555L357.396 126.943H341.493L340.334 134.102H354.993L353.834 140.972H339.175L338.016 148.148H353.919L352.76 155H328.419Z" fill="#818286"/>
</g>
<defs>
<clipPath id="clip0_0_3">
<rect width="695" height="184" fill="white"/>
</clipPath>
</defs>
</svg>
